<?xml version="1.0" encoding="utf-8" standalone="no"?>
<!DOCTYPE svg PUBLIC "-//W3C//DTD SVG 1.1//EN"
  "http://www.w3.org/Graphics/SVG/1.1/DTD/svg11.dtd">
<svg xmlns:xlink="http://www.w3.org/1999/xlink" width="475.2pt" height="313.066667pt" viewBox="0 0 475.2 313.066667" xmlns="http://www.w3.org/2000/svg" version="1.1">
 <metadata>
  <rdf:RDF xmlns:dc="http://purl.org/dc/elements/1.1/" xmlns:cc="http://creativecommons.org/ns#" xmlns:rdf="http://www.w3.org/1999/02/22-rdf-syntax-ns#">
   <cc:Work>
    <dc:type rdf:resource="http://purl.org/dc/dcmitype/StillImage"/>
    <dc:date>2025-08-08T19:46:20.767451</dc:date>
    <dc:format>image/svg+xml</dc:format>
    <dc:creator>
     <cc:Agent>
      <dc:title>Matplotlib v3.10.3, https://matplotlib.org/</dc:title>
     </cc:Agent>
    </dc:creator>
   </cc:Work>
  </rdf:RDF>
 </metadata>
 <defs>
  <style type="text/css">*{stroke-linejoin: round; stroke-linecap: butt}</style>
 </defs>
 <g id="figure_1">
  <g id="patch_1">
   <path d="M 0 313.066667
L 475.2 313.066667
L 475.2 0
L 0 0
L 0 313.066667
z
" style="fill: none"/>
  </g>
  <g id="axes_1">
   <g id="patch_2">
    <path d="M 450.933333 241.866667
C 450.933333 185.308848 428.441864 131.009637 388.449447 91.01722
C 348.45703 51.024803 294.157818 28.533333 237.6 28.533333
C 181.042182 28.533333 126.74297 51.024803 86.750553 91.01722
C 46.758136 131.009637 24.266667 185.308848 24.266667 241.866667
" clip-path="url(#p04b91b03c4)" style="fill: none; stroke: #1f77b4; stroke-width: 18; stroke-linejoin: miter; stroke-linecap: round"/>
   </g>
   <g id="line2d_1">
    <defs>
     <path id="m7abe288ce2" d="M 0 27
C 7.160484 27 14.028657 24.15511 19.091883 19.091883
C 24.15511 14.028657 27 7.160484 27 0
C 27 -7.160484 24.15511 -14.028657 19.091883 -19.091883
C 14.028657 -24.15511 7.160484 -27 0 -27
C -7.160484 -27 -14.028657 -24.15511 -19.091883 -19.091883
C -24.15511 -14.028657 -27 -7.160484 -27 0
C -27 7.160484 -24.15511 14.028657 -19.091883 19.091883
C -14.028657 24.15511 -7.160484 27 0 27
z
" style="stroke: #1f77b4; stroke-width: 18"/>
    </defs>
    <g clip-path="url(#p04b91b03c4)">
     <use xlink:href="#m7abe288ce2" x="288.383153" y="122.724508" style="fill-opacity: 0; stroke: #1f77b4; stroke-width: 18"/>
    </g>
   </g>
   <g id="patch_3">
    <path d="M 196.58593 185.273942
Q 225.771932 165.386979 238.327093 156.832056
" clip-path="url(#p04b91b03c4)" style="fill: none; stroke: #ff7f0e; stroke-width: 18; stroke-linejoin: miter; stroke-linecap: round"/>
    <path d="M 209.077479 160.789336
L 238.327093 156.832056
L 223.943149 182.606116
z
" clip-path="url(#p04b91b03c4)" style="fill: #ff7f0e; stroke: #ff7f0e; stroke-width: 18; stroke-linejoin: miter; stroke-linecap: round"/>
   </g>
   <g id="axes_2">
    <g id="line2d_2">
     <path d="M 30.24 287.844135
L 46.503529 288.564378
L 53.008941 288.64061
L 56.261647 288.526997
L 59.514353 288.222589
L 62.767059 287.619129
L 64.393412 287.160096
L 66.019765 286.566394
L 67.646118 285.812021
L 69.272471 284.868191
L 70.898824 283.703632
L 72.525176 282.285059
L 74.151529 280.577849
L 75.777882 278.546918
L 77.404235 276.157802
L 79.030588 273.377911
L 80.656941 270.177943
L 82.283294 266.533389
L 83.909647 262.426084
L 85.536 257.845714
L 87.162353 252.791207
L 88.788706 247.271914
L 92.041412 234.933435
L 95.294118 221.137475
L 100.173176 198.818107
L 105.052235 176.538428
L 108.304941 162.899755
L 109.931294 156.692556
L 111.557647 150.985148
L 113.184 145.832594
L 114.810353 141.277479
L 116.436706 137.349239
L 118.063059 134.064026
L 119.689412 131.425055
L 121.315765 129.423423
L 122.942118 128.039285
L 124.568471 127.243341
L 126.194824 126.998519
L 127.821176 127.261755
L 129.447529 127.9858
L 131.073882 129.120951
L 132.700235 130.616643
L 134.326588 132.422866
L 135.952941 134.491345
L 139.205647 139.23611
L 142.458353 144.52953
L 148.963765 155.799523
L 155.469176 166.978315
L 160.348235 174.934748
L 165.227294 182.422497
L 170.106353 189.425844
L 174.985412 195.959315
L 179.864471 202.048864
L 184.743529 207.723382
L 189.622588 213.011373
L 194.501647 217.939837
L 199.380706 222.534017
L 204.259765 226.817411
L 209.138824 230.811865
L 214.017882 234.537685
L 218.896941 238.013746
L 223.776 241.257589
L 228.655059 244.285518
L 235.160471 248.012923
L 241.665882 251.416289
L 248.171294 254.525543
L 254.676706 257.367832
L 261.182118 259.967775
L 267.687529 262.347706
L 274.192941 264.527882
L 282.324706 267.000025
L 290.456471 269.220815
L 298.588235 271.218739
L 308.346353 273.357366
L 318.104471 275.249368
L 327.862588 276.927701
L 339.247059 278.653467
L 350.631529 280.165635
L 363.642353 281.67383
L 378.279529 283.137958
L 394.543059 284.53043
L 412.432941 285.835778
L 433.575529 287.141863
L 444.96 287.76026
L 444.96 287.76026
" clip-path="url(#p46bbd1111e)" style="fill: none; stroke: #2ca02c; stroke-width: 18; stroke-linecap: round"/>
    </g>
   </g>
  </g>
 </g>
 <defs>
  <clipPath id="p04b91b03c4">
   <rect x="7.2" y="7.2" width="460.8" height="298.666667"/>
  </clipPath>
  <clipPath id="p46bbd1111e">
   <rect x="9.504" y="108.746667" width="456.192" height="197.12"/>
  </clipPath>
 </defs>
</svg>
