<?xml version="1.0" encoding="utf-8" standalone="no"?>
<!DOCTYPE svg PUBLIC "-//W3C//DTD SVG 1.1//EN"
  "http://www.w3.org/Graphics/SVG/1.1/DTD/svg11.dtd">
<svg xmlns:xlink="http://www.w3.org/1999/xlink" width="466.821818pt" height="475.2pt" viewBox="0 0 466.821818 475.2" xmlns="http://www.w3.org/2000/svg" version="1.1">
 <metadata>
  <rdf:RDF xmlns:dc="http://purl.org/dc/elements/1.1/" xmlns:cc="http://creativecommons.org/ns#" xmlns:rdf="http://www.w3.org/1999/02/22-rdf-syntax-ns#">
   <cc:Work>
    <dc:type rdf:resource="http://purl.org/dc/dcmitype/StillImage"/>
    <dc:date>2025-08-12T15:52:35.932921</dc:date>
    <dc:format>image/svg+xml</dc:format>
    <dc:creator>
     <cc:Agent>
      <dc:title>Matplotlib v3.10.3, https://matplotlib.org/</dc:title>
     </cc:Agent>
    </dc:creator>
   </cc:Work>
  </rdf:RDF>
 </metadata>
 <defs>
  <style type="text/css">*{stroke-linejoin: round; stroke-linecap: butt}</style>
 </defs>
 <g id="figure_1">
  <g id="patch_1">
   <path d="M 0 475.2
L 466.821818 475.2
L 466.821818 0
L 0 0
L 0 475.2
z
" style="fill: none"/>
  </g>
  <g id="axes_1">
   <g id="patch_2">
    <path d="M 442.865455 237.6
C 442.865455 182.070506 420.782921 128.758553 381.517639 89.493271
C 342.252357 50.227989 288.940403 28.145455 233.410909 28.145455
C 177.881415 28.145455 124.569462 50.227989 85.30418 89.493271
C 46.038898 128.758553 23.956364 182.070506 23.956364 237.6
" clip-path="url(#p3827255fda)" style="fill: none; stroke: #1f77b4; stroke-width: 20; stroke-linejoin: miter; stroke-linecap: round"/>
   </g>
   <g id="line2d_1">
    <defs>
     <path id="mc07c89df57" d="M 0 30
C 7.956093 30 15.587396 26.839011 21.213203 21.213203
C 26.839011 15.587396 30 7.956093 30 0
C 30 -7.956093 26.839011 -15.587396 21.213203 -21.213203
C 15.587396 -26.839011 7.956093 -30 0 -30
C -7.956093 -30 -15.587396 -26.839011 -21.213203 -21.213203
C -26.839011 -15.587396 -30 -7.956093 -30 0
C -30 7.956093 -26.839011 15.587396 -21.213203 21.213203
C -15.587396 26.839011 -7.956093 30 0 30
z
" style="stroke: #1f77b4; stroke-width: 20"/>
    </defs>
    <g clip-path="url(#p3827255fda)">
     <use xlink:href="#mc07c89df57" x="283.270732" y="120.624062" style="fill-opacity: 0; stroke: #1f77b4; stroke-width: 20"/>
    </g>
   </g>
   <g id="axes_2">
    <g id="line2d_2">
     <path d="M 33.934017 301.585233
L 48.014738 302.287414
L 54.272837 302.432995
L 58.966411 302.303569
L 62.09546 301.983347
L 65.224509 301.348539
L 66.789034 300.86566
L 68.353559 300.241116
L 69.918083 299.447554
L 71.482608 298.454695
L 73.047133 297.229639
L 74.611657 295.737374
L 76.176182 293.941477
L 77.740707 291.805044
L 79.305231 289.291818
L 80.869756 286.367517
L 82.434281 283.001316
L 83.998805 279.167435
L 85.56333 274.846763
L 87.127855 270.028452
L 88.692379 264.711373
L 90.256904 258.905364
L 93.385953 245.925925
L 96.515002 231.413292
L 101.208576 207.934476
L 105.90215 184.497411
L 109.0312 170.150236
L 110.595724 163.620585
L 112.160249 157.616688
L 113.724774 152.196469
L 115.289298 147.404725
L 116.853823 143.272421
L 118.418347 139.816546
L 119.982872 137.040487
L 121.547397 134.934874
L 123.111921 133.478832
L 124.676446 132.641541
L 126.240971 132.384
L 127.805495 132.660911
L 129.37002 133.422569
L 130.934545 134.616689
L 132.499069 136.190079
L 134.063594 138.090132
L 135.628119 140.266064
L 138.757168 145.25731
L 141.886217 150.825713
L 148.144316 162.68116
L 154.402414 174.440669
L 159.095988 182.810423
L 163.789562 190.687146
L 168.483136 198.054304
L 173.17671 204.927176
L 177.870284 211.333064
L 182.563858 217.302363
L 187.257432 222.865054
L 191.951006 228.049543
L 196.64458 232.882382
L 201.338154 237.38829
L 206.031728 241.590247
L 210.725302 245.509617
L 215.418876 249.166253
L 220.11245 252.578607
L 224.806024 255.76383
L 229.499597 258.737862
L 235.757696 262.400173
L 242.015795 265.745508
L 248.273893 268.803129
L 254.531992 271.599575
L 260.79009 274.15892
L 267.048189 276.502999
L 274.870812 279.160376
L 282.693435 281.546898
L 290.516059 283.693274
L 298.338682 285.626684
L 307.72583 287.699346
L 317.112978 289.536241
L 328.06465 291.423014
L 339.016323 293.074179
L 351.53252 294.718616
L 364.048717 296.146932
L 378.129439 297.541114
L 393.774685 298.875658
L 412.548981 300.241514
L 432.887802 301.497001
L 432.887802 301.497001
" clip-path="url(#pbd20724ad1)" style="fill: none; stroke: #ff7f0e; stroke-width: 20; stroke-linecap: round"/>
    </g>
   </g>
   <g id="axes_3">
    <g id="line2d_3">
     <path d="M 79.176198 378.60478
L 86.434302 372.440156
L 97.321458 362.839206
L 110.627982 351.139992
L 117.886087 345.057929
L 123.934507 340.275213
L 128.773243 336.68814
L 133.611979 333.351168
L 138.450715 330.296434
L 143.289451 327.553357
L 146.918503 325.716586
L 150.547555 324.080002
L 154.176607 322.652475
L 157.805659 321.441739
L 161.434711 320.454356
L 165.063763 319.695677
L 168.692815 319.169813
L 172.321867 318.879614
L 175.950919 318.826652
L 179.579971 319.011215
L 183.209023 319.432302
L 186.838075 320.087631
L 190.467127 320.973651
L 194.096179 322.085561
L 197.725231 323.417334
L 201.354283 324.961755
L 204.983335 326.710454
L 208.612387 328.653954
L 213.451123 331.529963
L 218.289859 334.70575
L 223.128595 338.150729
L 229.177015 342.784742
L 235.225435 347.717662
L 242.483539 353.927007
L 254.580379 364.627582
L 265.467535 374.175459
L 272.725639 380.257522
L 278.774059 385.040238
L 283.612795 388.627311
L 288.451531 391.964283
L 293.290267 395.019017
L 298.129003 397.762094
L 301.758055 399.598865
L 305.387107 401.235448
L 309.016159 402.662976
L 312.645211 403.873712
L 316.274263 404.861094
L 319.903316 405.619773
L 323.532368 406.145637
L 327.16142 406.435836
L 330.790472 406.488798
L 334.419524 406.304236
L 338.048576 405.883149
L 341.677628 405.22782
L 345.30668 404.3418
L 348.935732 403.22989
L 352.564784 401.898116
L 356.193836 400.353695
L 359.822888 398.604997
L 363.45194 396.661497
L 368.290676 393.785487
L 373.129412 390.609701
L 377.968148 387.164721
L 384.016568 382.530709
L 387.64562 379.602165
L 387.64562 379.602165
" clip-path="url(#p0a342ae818)" style="fill: none; stroke: #2ca02c; stroke-width: 20; stroke-linecap: round"/>
    </g>
   </g>
  </g>
 </g>
 <defs>
  <clipPath id="p3827255fda">
   <rect x="7.2" y="7.2" width="452.421818" height="460.8"/>
  </clipPath>
  <clipPath id="pbd20724ad1">
   <rect x="13.986327" y="113.184" width="438.849164" height="207.36"/>
  </clipPath>
  <clipPath id="p0a342ae818">
   <rect x="63.752727" y="304.416" width="339.316364" height="115.2"/>
  </clipPath>
 </defs>
</svg>
