<?xml version="1.0" encoding="utf-8" standalone="no"?>
<!DOCTYPE svg PUBLIC "-//W3C//DTD SVG 1.1//EN"
  "http://www.w3.org/Graphics/SVG/1.1/DTD/svg11.dtd">
<svg xmlns:xlink="http://www.w3.org/1999/xlink" width="466.821818pt" height="475.2pt" viewBox="0 0 466.821818 475.2" xmlns="http://www.w3.org/2000/svg" version="1.1">
 <metadata>
  <rdf:RDF xmlns:dc="http://purl.org/dc/elements/1.1/" xmlns:cc="http://creativecommons.org/ns#" xmlns:rdf="http://www.w3.org/1999/02/22-rdf-syntax-ns#">
   <cc:Work>
    <dc:type rdf:resource="http://purl.org/dc/dcmitype/StillImage"/>
    <dc:date>2025-08-16T13:06:26.207012</dc:date>
    <dc:format>image/svg+xml</dc:format>
    <dc:creator>
     <cc:Agent>
      <dc:title>Matplotlib v3.10.3, https://matplotlib.org/</dc:title>
     </cc:Agent>
    </dc:creator>
   </cc:Work>
  </rdf:RDF>
 </metadata>
 <defs>
  <style type="text/css">*{stroke-linejoin: round; stroke-linecap: butt}</style>
 </defs>
 <g id="figure_1">
  <g id="patch_1">
   <path d="M 0 475.2
L 466.821818 475.2
L 466.821818 0
L 0 0
L 0 475.2
z
" style="fill: none"/>
  </g>
  <g id="axes_1">
   <g id="patch_2">
    <path d="M 442.865455 237.6
C 442.865455 182.070506 420.782921 128.758553 381.517639 89.493271
C 342.252357 50.227989 288.940403 28.145455 233.410909 28.145455
C 177.881415 28.145455 124.569462 50.227989 85.30418 89.493271
C 46.038898 128.758553 23.956364 182.070506 23.956364 237.6
" clip-path="url(#peaa5e65bc5)" style="fill: none; stroke: #808080; stroke-linejoin: miter"/>
   </g>
   <g id="patch_3">
    <path d="M 442.865455 237.6
C 442.865455 182.070506 420.782921 128.758553 381.517639 89.493271
C 342.252357 50.227989 288.940403 28.145455 233.410909 28.145455
C 177.881415 28.145455 124.569462 50.227989 85.30418 89.493271
C 46.038898 128.758553 23.956364 182.070506 23.956364 237.6
" clip-path="url(#peaa5e65bc5)" style="fill: none; stroke: #1f77b4; stroke-width: 25; stroke-linejoin: miter; stroke-linecap: round"/>
   </g>
   <g id="line2d_1"/>
   <g id="patch_4">
    <path d="M 298.117675 163.206254
C 307.005354 163.206254 315.530214 159.675142 321.814752 153.390604
C 328.09929 147.106065 331.630402 138.581206 331.630402 129.693527
C 331.630402 120.805848 328.09929 112.280988 321.814752 105.99645
C 315.530214 99.711912 307.005354 96.1808 298.117675 96.1808
C 289.229996 96.1808 280.705137 99.711912 274.420598 105.99645
C 268.13606 112.280988 264.604948 120.805848 264.604948 129.693527
C 264.604948 138.581206 268.13606 147.106065 274.420598 153.390604
C 280.705137 159.675142 289.229996 163.206254 298.117675 163.206254
L 298.117675 163.206254
z
" clip-path="url(#peaa5e65bc5)" style="fill: none; stroke: #1f77b4; stroke-width: 25; stroke-linejoin: miter"/>
   </g>
   <g id="axes_2">
    <g id="line2d_2">
     <path d="M 33.934017 302.312103
L 52.708312 303.145145
L 60.530936 303.285992
L 65.224509 303.115831
L 68.353559 302.767921
L 71.482608 302.104113
L 73.047133 301.605824
L 74.611657 300.964941
L 76.176182 300.153793
L 77.740707 299.141708
L 79.305231 297.895328
L 80.869756 296.379095
L 82.434281 294.55597
L 83.998805 292.388356
L 85.56333 289.839242
L 87.127855 286.873547
L 88.692379 283.459621
L 90.256904 279.570861
L 91.821428 275.187373
L 93.385953 270.2976
L 94.950478 264.899823
L 96.515002 259.003446
L 99.644052 245.813598
L 102.773101 231.05248
L 107.466675 207.143939
L 112.160249 183.246069
L 115.289298 168.602365
L 116.853823 161.934547
L 118.418347 155.802157
L 119.982872 150.265116
L 121.547397 145.369973
L 123.111921 141.149153
L 124.676446 137.620767
L 126.240971 134.788968
L 127.805495 132.644787
L 129.37002 131.167393
L 130.934545 130.325665
L 132.499069 130.08
L 134.063594 130.384228
L 135.628119 131.187554
L 137.192643 132.436435
L 138.757168 134.076305
L 140.321693 136.053113
L 141.886217 138.314617
L 145.015267 143.497746
L 148.144316 149.276877
L 154.402414 161.575759
L 160.660513 173.769381
L 165.354087 182.443472
L 170.047661 190.601851
L 174.741235 198.227271
L 179.434809 205.335712
L 184.128383 211.955743
L 188.821957 218.119189
L 193.515531 223.85745
L 198.209105 229.200278
L 202.902678 234.175488
L 207.596252 238.808971
L 212.289826 243.1248
L 216.9834 247.145351
L 221.676974 250.891419
L 226.370548 254.382332
L 231.064122 257.636052
L 235.757696 260.669275
L 240.45127 263.497516
L 246.709369 266.97442
L 252.967467 270.14383
L 259.225566 273.034227
L 265.483664 275.671441
L 271.741763 278.0789
L 277.999862 280.277854
L 285.822485 282.762525
L 293.645108 284.985144
L 301.467731 286.975585
L 309.290354 288.760295
L 318.677502 290.663147
L 328.06465 292.338714
L 339.016323 294.046839
L 349.967995 295.528544
L 362.484193 296.989279
L 376.564914 298.387397
L 392.210161 299.694814
L 409.419932 300.896578
L 429.758752 302.071605
L 432.887802 302.233093
L 432.887802 302.233093
" clip-path="url(#p717529631e)" style="fill: none; stroke: #ff7f0e; stroke-width: 25; stroke-linecap: round"/>
    </g>
   </g>
   <g id="axes_3">
    <g id="line2d_3">
     <path d="M 79.176198 378.045938
L 85.224618 372.974192
L 92.482722 366.605631
L 108.208614 352.38659
L 116.676403 344.890774
L 123.934507 338.774217
L 129.982927 333.996198
L 134.821663 330.434753
L 139.660399 327.142595
L 144.499135 324.151431
L 149.337871 321.490065
L 152.966923 319.726017
L 156.595975 318.171527
L 160.225027 316.835021
L 163.854079 315.72374
L 167.483131 314.843707
L 171.112183 314.19969
L 174.741235 313.79518
L 178.370287 313.632369
L 181.999339 313.712139
L 185.628391 314.034058
L 189.257443 314.596381
L 192.886495 315.396061
L 196.515547 316.428764
L 200.144599 317.688894
L 203.773651 319.169623
L 207.402703 320.862926
L 211.031755 322.759627
L 215.870491 325.587041
L 220.709227 328.73043
L 225.547963 332.159519
L 230.386699 335.841285
L 236.435119 340.744598
L 243.693223 346.972253
L 253.370695 355.636354
L 270.306271 370.850811
L 277.564375 377.025496
L 283.612795 381.868451
L 288.451531 385.491953
L 293.290267 388.854511
L 298.129003 391.923743
L 302.967739 394.67009
L 306.596791 396.501922
L 310.225843 398.127257
L 313.854895 399.537289
L 317.483947 400.724375
L 321.113 401.682083
L 324.742052 402.405223
L 328.371104 402.889876
L 332.000156 403.133417
L 335.629208 403.134524
L 339.25826 402.893192
L 342.887312 402.41073
L 346.516364 401.68975
L 350.145416 400.734162
L 353.774468 399.549142
L 357.40352 398.141112
L 361.032572 396.517704
L 364.661624 394.687713
L 368.290676 392.661058
L 373.129412 389.672056
L 377.968148 386.381855
L 382.806884 382.822139
L 387.64562 379.027192
L 387.64562 379.027192
" clip-path="url(#p1db590b24e)" style="fill: none; stroke: #2ca02c; stroke-width: 25; stroke-linecap: round"/>
    </g>
   </g>
  </g>
 </g>
 <defs>
  <clipPath id="peaa5e65bc5">
   <rect x="7.2" y="7.2" width="452.421818" height="460.8"/>
  </clipPath>
  <clipPath id="p717529631e">
   <rect x="13.986327" y="110.88" width="438.849164" height="207.36"/>
  </clipPath>
  <clipPath id="p1db590b24e">
   <rect x="63.752727" y="300.7296" width="339.316364" height="115.2"/>
  </clipPath>
 </defs>
</svg>
